<svg width="1200" height="630" xmlns="http://www.w3.org/2000/svg">
  <defs>
    <linearGradient id="bg" x1="0%" y1="0%" x2="100%" y2="100%">
      <stop offset="0%" stop-color="#0f172a"/>
      <stop offset="50%" stop-color="#1e1b4b"/>
      <stop offset="100%" stop-color="#0f172a"/>
    </linearGradient>
    <linearGradient id="grad" x1="0%" y1="0%" x2="100%" y2="0%">
      <stop offset="0%" stop-color="#a855f7"/>
      <stop offset="100%" stop-color="#ec4899"/>
    </linearGradient>
    <radialGradient id="glow" cx="50%" cy="50%" r="50%">
      <stop offset="0%" stop-color="#a855f7" stop-opacity="0.25"/>
      <stop offset="100%" stop-color="#a855f7" stop-opacity="0"/>
    </radialGradient>
  </defs>

  <rect width="1200" height="630" fill="url(#bg)"/>
  <ellipse cx="600" cy="315" rx="420" ry="300" fill="url(#glow)"/>

  <!-- Ghost icon -->
  <g transform="translate(600,210)">
    <path d="M0,-90 C-50,-90 -90,-50 -90,0 L-90,105 L-67,84 L-45,105 L-22,84 L0,105 L22,84 L45,105 L67,84 L90,105 L90,0 C90,-50 50,-90 0,-90 Z"
      fill="none" stroke="url(#grad)" stroke-width="7" stroke-linejoin="round" stroke-linecap="round"/>
    <circle cx="-30" cy="-10" r="10" fill="url(#grad)"/>
    <circle cx="30" cy="-10" r="10" fill="url(#grad)"/>
  </g>

  <text x="600" y="405"
    font-family="system-ui,-apple-system,BlinkMacSystemFont,sans-serif"
    font-size="90" font-weight="800" text-anchor="middle"
    fill="url(#grad)">SoulSpace</text>

  <text x="600" y="468"
    font-family="system-ui,-apple-system,BlinkMacSystemFont,sans-serif"
    font-size="28" text-anchor="middle" fill="#94a3b8" letter-spacing="1">
    Share your soul anonymously. Expires in 24 hours.
  </text>

  <rect x="480" y="502" width="240" height="2" rx="1" fill="url(#grad)" opacity="0.4"/>

  <circle cx="80" cy="80" r="5" fill="#a855f7" opacity="0.5"/>
  <circle cx="1120" cy="80" r="5" fill="#ec4899" opacity="0.5"/>
  <circle cx="80" cy="550" r="5" fill="#ec4899" opacity="0.5"/>
  <circle cx="1120" cy="550" r="5" fill="#a855f7" opacity="0.5"/>
  <circle cx="200" cy="40" r="3" fill="#a855f7" opacity="0.3"/>
  <circle cx="1000" cy="590" r="3" fill="#ec4899" opacity="0.3"/>
</svg>
